<?xml version="1.0" encoding="utf-8"?>
<!-- Generator: Adobe Illustrator 27.5.0, SVG Export Plug-In . SVG Version: 6.00 Build 0)  -->
<svg version="1.1" id="Layer_1" xmlns="http://www.w3.org/2000/svg" xmlns:xlink="http://www.w3.org/1999/xlink" x="0px" y="0px"
	 viewBox="0 0 290.794 204.5" style="enable-background:new 0 0 290.794 204.5;" xml:space="preserve">
<g>
	<g>
		<path style="fill:#EA602A;" d="M40.038,59.881c1.193-2.561,2.915-5.549,5.1-8.02c-1.929,1.332-3.667,2.926-5.113,4.467
			c-3.175,3.373-6.573,11.162-11.91,11.785c-1.165,0.359-2.408,0.416-3.744,0.01c-4.619-1.412-5.948-7.609-7.614-11.414
			c-1.342-3.063-2.992-6.334-5.852-8.262c-1.97-1.324-3.942-1.617-6.025-1.799c2.056,1.982,3.446,4.416,4.272,7.379
			c1.3,4.676,2.106,9.473,3.231,14.191c0.967,4.063,2.324,8.33,4.701,11.588c5.453,6.488,13.687,2.996,19.402-1.344
			C36.775,72.094,37.33,65.696,40.038,59.881z"/>
		<path style="fill:#FCEE21;" d="M38.269,88.786c1.105,11.277,3.319,22.52,7.762,32.957c3.385-2.646,6.704-5.377,10.02-8.104
			c3.341-2.752,6.626-5.732,10.316-8.018c3.005-1.865,6.807-3.92,10.473-3.607c0.507,0.041,0.974,0.143,1.414,0.281
			c-2.993-4.107-6.646-7.723-6.976-18.412C59.996,83.77,48.589,84.155,38.269,88.786z"/>
		<path style="fill:#DF007D;" d="M38.085,86.862c2.995-1.113,6.003-2.207,9.091-3.023c4.352-1.141,8.857-1.832,13.354-2.029
			c3.586-0.162,7.161-0.043,10.724,0.203c0.005-1.021,0.037-2.092,0.098-3.234c-8.313-2.82-15.929-7.633-18.913-16.457
			c-1.354-4.006-2.102-9.928-0.008-13.846c-2.288,0.922-4.367,2.219-5.551,3.371c-7.48,7.291-9.781,20.318-9.16,30.166
			C37.823,83.627,37.943,85.247,38.085,86.862z"/>
		<path style="fill:#EA602A;" d="M118.531,129.401c-8.013,0.029-15.839,2.006-23.729,3.15c-4.037,0.592-8.397,0.824-12.363-0.268
			c-4.23-1.158-5.334-3.016-4.887-5.475c-2.33,3.154-5.871,5.455-9.116,7.508c-3.579,2.26-7.262,4.254-10.979,6.207
			c2.824,3.006,6.097,5.484,9.928,7.012c18.641,7.438,35.613-5.973,53.131-10.467c2.975-0.758,11.401-3.016,11.325-3.752
			C131.689,131.946,121.215,129.385,118.531,129.401z"/>
		<path style="fill:#0071C1;" d="M71.107,25.834c0,11.277-9.14,20.418-20.416,20.418s-20.415-9.141-20.415-20.418
			c0-11.275,9.139-20.416,20.415-20.416S71.107,14.559,71.107,25.834z"/>
		<path style="fill:#A7CB19;" d="M74.679,104.491c-1.449,0.063-2.947,0.4-4.35,0.975c-5.898,2.404-10.739,7.586-15.661,11.516
			c-5.626,4.498-11.285,8.963-16.618,13.805c-3.211,2.922-6.596,5.836-8.87,9.588c-2.694,4.455-4.172,9.588-4.402,14.799
			c-0.643,14.441,1.237,28.725,1.746,43.121c0.061,1.715,2.573,0.264,2.693-0.877c1.607-15.188,5.26-31.137,11.843-44.994
			c3.986-8.389,11.595-10.889,19.128-15.068c6.108-3.387,12.573-6.869,17.05-12.389c2.838-3.496,5.519-9.338,5.263-13.887
			C82.227,106.221,78.633,104.329,74.679,104.491z"/>
		<path style="fill:#EA602A;" d="M133.816,86.821c-1.102-0.719-3.155-1.447-3.436-1.521c-15.41-4.215-30.367-11.676-42.74-21.816
			c-4.829-3.957-26.818-23.857-33.599-14.215c-3.339,4.744,1.251,14.729,4.402,17.924c12.555,12.73,33.057,16.428,49.98,20.307
			C130.673,92.6,135.828,88.123,133.816,86.821z"/>
	</g>
	<g>
		<g>
			<path style="fill:#EA602A;" d="M210.771,53.924c-8.773,3.25-16.823,8.057-24.936,12.646c-8.335,4.713-17.098,8.541-26.445,10.721
				c-2.595,0.602-5.207,1.275-7.837,1.762c4.116,1.879,8.26,3.697,12.444,5.422c3.359-0.455,6.723-1.361,9.925-2.555
				c4.627-1.725,9.104-3.969,13.721-5.752c7.41-3.51,14.979-6.527,23.201-6.607c0.289-4.184,1.55-8.226,3.265-12.115
				c0.365-0.916,0.777-1.813,1.257-2.672c0.447-0.898,0.913-1.791,1.392-2.674C214.741,52.592,212.747,53.196,210.771,53.924z"/>
			<path style="fill:#0071C1;" d="M242.632,28.993c0,11.275-9.14,20.41-20.414,20.41c-11.275,0-20.418-9.135-20.418-20.41
				s9.143-20.416,20.418-20.416C233.492,8.577,242.632,17.717,242.632,28.993z"/>
			<path style="fill:#DF007D;" d="M232.063,81.756c3.332-0.342,6.672-0.51,10.013-0.646c0.797-0.072,1.596-0.143,2.398-0.195
				c-0.08-4.119-0.252-7.176-0.583-7.262c-5.927-1.541-10.978-6.354-12.904-12.223c-1.313-3.992-1.095-10.24,2.744-12.232
				c-0.892-0.283-1.878-0.473-2.961-0.543c-2.384,2.078-3.951,5.258-5.033,8.377c-0.966,2.801-1.743,8.221-5.116,9.215
				c-1.528,0.449-2.813-1.467-3.246-2.662c-0.688-1.9-0.726-3.984-0.343-5.971c0.376-1.967,1.08-4.082,2.166-5.928
				c-2.962,2.441-4.504,6.258-5.313,9.912c-0.612,2.766-0.841,5.604-1.058,8.422c-0.378,4.945-0.59,9.959-0.605,14.992
				C216.989,83.637,230.276,81.936,232.063,81.756z"/>
			<path style="fill:#EA602A;" d="M285.295,130.42c-0.623-1.125-1.331-2.369-2.287-3.004c-1.752-1.162-3.738-1.668-5.816-1.74
				c-8.028-0.289-14.254,5.424-20.517,9.594c-5.471,3.646-12.631,8.309-13.715-1.635c-0.417-3.838-0.378-7.668-0.15-11.498
				c-1.286,2.199-2.927,4.213-4.951,5.975c-3.423,2.973-7.431,4.963-11.428,7.035c-1.453,0.75-3.163,1.854-4.9,2.414
				c3.507,8.262,9.145,17.971,17.386,21.158c5.218,2.02,11.538-2.83,15.355-6.342c1.467-1.621,2.95-3.225,4.459-4.811
				c3.554-3.729,7.104-7.736,11.08-11.021c5.231-4.32,9.804-4.701,16.105-5.027C285.719,131.184,285.511,130.809,285.295,130.42z"/>
			<path style="fill:#FCEE21;" d="M221.676,110.44c3.009-2.031,6.045-3.986,9.187-5.805c4.245-2.459,8.77-4.713,13.576-5.74
				c0.073-4.479,0.13-11.268,0.057-16.68c-0.103-0.006-0.205-0.008-0.309-0.01c-2.242,0.258-4.463,0.699-6.712,0.844
				c-11.013,0.699-21.77,3.32-25.25,3.865c0.064,9.488,0.861,19.029,2.661,28.328C217.299,114.001,219.483,111.922,221.676,110.44z"
				/>
			<path style="fill:#EA602A;" d="M233.718,62.905c1.867,3.791,5.209,6.605,8.958,8.475c4.411,2.197,9.464,2.863,13.662,5.516
				c0.589,0.375,1.168,0.766,1.748,1.172c1.186,0.672,2.337,1.422,3.434,2.293c5.408,4.281,9.786,9.768,13.778,15.355
				c2.813,3.939,5.373,8.049,7.22,12.482c0.599-0.309,1.255-1.221,1.148-1.77c-2.933-15.262-8.7-31.098-20.54-41.701
				c-4.555-4.078-9.607-7.5-14.84-10.639c-3.549-2.133-8.983-5.174-13.16-3.033c-4.111,2.102-3.166,7.84-1.715,11.184
				C233.506,62.465,233.611,62.684,233.718,62.905z"/>
			<path style="fill:#A7CB19;" d="M241.555,120.983c2.143-3.109,3.643-6.656,4.191-10.719c0.338-2.49,0.41-7.652-2.86-8.225
				c-4.923-0.867-22.428,11.201-27.03,14.143c-4.86,3.115-9.479,6.67-13.417,10.91c-3.174,3.414-5.987,7.125-8.736,10.887
				c-5.753,7.861-10.539,16.51-14.46,25.42c-2.155,4.896-4.021,9.957-5.598,15.072c-0.884,2.871-1.665,5.771-2.323,8.699
				c-0.31,1.375-0.678,8.049-1.674,8.734c1.01-0.691,2.006-1.938,2.632-2.68c9.099-10.785,15.615-23.768,24.289-34.928
				c3.227-4.143,6.809-8.014,10.763-11.473c1.032-0.906,12.942-9.752,12.986-9.666c0.021,0.043,9.213-5.422,10.11-5.988
				C234.796,128.405,238.733,125.073,241.555,120.983z"/>
		</g>
		<path style="fill:#FCEE21;" d="M122.832,67.766l39.508,16.676c0,0,3.77,1.99,0.989,5.162c-2.778,3.176-7.345-0.394-12.902-2.775
			c-5.56-2.387-30.772-12.512-30.772-12.512s-3.376-1.588-1.191-4.764C120.648,66.376,122.832,67.766,122.832,67.766z"/>
	</g>
</g>
</svg>
